<?xml version="1.0" encoding="UTF-8" standalone="no"?>
<!-- Created with Inkscape (http://www.inkscape.org/) -->

<svg
   xmlns:dc="http://purl.org/dc/elements/1.1/"
   xmlns:cc="http://creativecommons.org/ns#"
   xmlns:rdf="http://www.w3.org/1999/02/22-rdf-syntax-ns#"
   xmlns:svg="http://www.w3.org/2000/svg"
   xmlns="http://www.w3.org/2000/svg"
   xmlns:xlink="http://www.w3.org/1999/xlink"
   xmlns:sodipodi="http://sodipodi.sourceforge.net/DTD/sodipodi-0.dtd"
   xmlns:inkscape="http://www.inkscape.org/namespaces/inkscape"
   width="210mm"
   height="297mm"
   viewBox="0 0 210 297"
   version="1.1"
   id="svg8"
   sodipodi:docname="thebestshop.svg"
   inkscape:version="0.92.5 (2060ec1f9f, 2020-04-08)">
  <defs
     id="defs2">
    <inkscape:perspective
       sodipodi:type="inkscape:persp3d"
       inkscape:vp_x="1210.0527 : 610.11341 : 1"
       inkscape:vp_y="0 : 3779.5275 : 0"
       inkscape:vp_z="2003.7535 : 610.11341 : 1"
       inkscape:persp3d-origin="1606.9031 : 423.02684 : 1"
       id="perspective4892" />
    <inkscape:perspective
       sodipodi:type="inkscape:persp3d"
       inkscape:vp_x="131.40921 : 173.37162 : 1"
       inkscape:vp_y="0 : 1000 : 0"
       inkscape:vp_z="341.40921 : 173.37162 : 1"
       inkscape:persp3d-origin="236.40921 : 123.87161 : 1"
       id="perspective4769" />
    <linearGradient
       inkscape:collect="always"
       id="linearGradient4661">
      <stop
         style="stop-color:#00ffff;stop-opacity:1;"
         offset="0"
         id="stop4657" />
      <stop
         style="stop-color:#ff0402;stop-opacity:0.91512913"
         offset="1"
         id="stop4659" />
    </linearGradient>
    <linearGradient
       inkscape:collect="always"
       xlink:href="#linearGradient4661"
       id="linearGradient4680"
       x1="473.17505"
       y1="257.36136"
       x2="192.29883"
       y2="463.50391"
       gradientUnits="userSpaceOnUse" />
  </defs>
  <sodipodi:namedview
     id="base"
     pagecolor="#ffffff"
     bordercolor="#666666"
     borderopacity="1.0"
     inkscape:pageopacity="0.0"
     inkscape:pageshadow="2"
     inkscape:zoom="0.7"
     inkscape:cx="640.12274"
     inkscape:cy="423.34595"
     inkscape:document-units="mm"
     inkscape:current-layer="layer1"
     showgrid="false"
     showguides="true"
     inkscape:guide-bbox="true"
     inkscape:window-width="1294"
     inkscape:window-height="713"
     inkscape:window-x="72"
     inkscape:window-y="27"
     inkscape:window-maximized="1" />
  <metadata
     id="metadata5">
    <rdf:RDF>
      <cc:Work
         rdf:about="">
        <dc:format>image/svg+xml</dc:format>
        <dc:type
           rdf:resource="http://purl.org/dc/dcmitype/StillImage" />
      </cc:Work>
    </rdf:RDF>
  </metadata>
  <g
     inkscape:label="Layer 1"
     inkscape:groupmode="layer"
     id="layer1">
    <path
       style="opacity:1;fill:#4d4d4d;fill-opacity:1;stroke-width:0.26458332"
       d="m 57.816911,-57.482744 a 30,30 0 0 0 -16.12636,-13.296918 34.999998,34.999998 0 0 1 0.28579,0.456769 34.999998,34.999998 0 0 1 -12.810862,47.810793 34.999998,34.999998 0 0 1 -14.587059,4.525937 30,30 0 0 0 32.258091,1.484245 30,30 0 0 0 10.9804,-40.980826 z"
       id="path4682"
       inkscape:connector-curvature="0" />
    <path
       style="opacity:1;fill:#000000;fill-opacity:0.68634691;stroke-width:0.30868053"
       d="m 42.089801,-41.069749 a 50,50 0 0 1 -3.846832,2.512761 50,50 0 0 1 -63.474476,-11.375462 34.999998,34.999998 0 0 0 4.44799,13.535313 34.999998,34.999998 0 0 0 47.810796,12.810864 34.999998,34.999998 0 0 0 15.062522,-17.483476 z"
       id="path4689"
       inkscape:connector-curvature="0" />
    <path
       style="opacity:1;fill:#000000;fill-opacity:0.68634691;stroke-width:0.30868053"
       d="m 74.186864,-71.723174 a 50,50 0 0 1 -1.661913,4.283462 50,50 0 0 1 -9.93686,14.385684 30,30 0 0 1 1.51463,9.292455 30,30 0 0 1 -0.8387,6.903455 34.999998,34.999998 0 0 0 8.87129,-11.879379 34.999998,34.999998 0 0 0 2.051553,-22.985677 z"
       id="path4696"
       inkscape:connector-curvature="0" />
    <path
       style="opacity:1;fill:#4c684d;fill-opacity:0.64206657;stroke:#000402;stroke-width:0;stroke-linecap:butt;stroke-miterlimit:4;stroke-dasharray:none;stroke-opacity:1;paint-order:stroke markers fill"
       d="M 84.900612,-18.383522 A 45.034919,26.994225 0 0 0 74.33795,-17.599591 33.337711,41.891185 78.312277 0 1 111.63541,8.3605819 33.337711,41.891185 78.312277 0 1 104.40898,32.914637 45.034919,26.994225 0 0 0 129.93559,8.6106952 45.034919,26.994225 0 0 0 84.900612,-18.383522 Z"
       id="path4711"
       inkscape:connector-curvature="0" />
    <path
       style="opacity:1;fill:#4c684d;fill-opacity:0.64206699;stroke:#b10402;stroke-width:0;stroke-linecap:butt;stroke-miterlimit:4;stroke-dasharray:none;stroke-opacity:0.52398526;paint-order:stroke markers fill"
       d="M 46.876649,19.137922 A 57.596584,30.86963 0 0 1 52.743475,32.662162 57.596584,30.86963 0 0 1 -1.4366796,63.466482 37.952275,29.533286 0 0 0 17.731142,67.54582 37.952275,29.533286 0 0 0 55.683347,38.012738 37.952275,29.533286 0 0 0 46.876649,19.137922 Z"
       id="path4718"
       inkscape:connector-curvature="0" />
    <circle
       style="opacity:1;fill:#4c644d;fill-opacity:0.64206699;stroke:#b10402;stroke-width:0;stroke-linecap:butt;stroke-miterlimit:4;stroke-dasharray:none;stroke-opacity:0.52398526;paint-order:stroke markers fill"
       id="path4726"
       cx="159.74094"
       cy="-41.880714"
       r="35" />
    <path
       style="opacity:1;fill:#4c644d;fill-opacity:0.64206699;stroke:#b10402;stroke-width:0;stroke-linecap:butt;stroke-miterlimit:4;stroke-dasharray:none;stroke-opacity:0.52398526;paint-order:stroke markers fill"
       d="m 80.411554,9.1716051 a 10.106161,24.948804 68.656161 0 0 -10.688238,1.3037969 10.106161,24.948804 68.656161 0 0 -6.428546,1.989027 10.769349,25.785875 66.027495 0 1 13.263789,-0.07183 8.174592,8.2853037 0 0 0 -1.955437,5.373833 8.174592,8.2853037 0 0 0 8.174696,8.285281 8.174592,8.2853037 0 0 0 6.932909,-3.90467 l 1.951302,-0.44545 4.57078,-1.042832 -4.143933,-2.427242 -1.146699,-0.671793 a 8.174592,8.2853037 0 0 0 -7.082771,-7.9964119 10.106161,24.948804 68.656161 0 0 -0.03514,-0.0088 10.106161,24.948804 68.656161 0 0 -3.41271,-0.382923 z"
       id="path4735"
       inkscape:connector-curvature="0" />
    <path
       id="path4765"
       d="m 138.81927,31.956181 a 45.034919,26.994225 4.8961357 0 0 -10.59102,-0.12045 33.337711,41.891185 83.208413 0 1 34.94566,29.04878 33.337711,41.891185 83.208413 0 1 -9.29574,23.84768 45.034919,26.994225 4.8961357 0 0 27.50778,-22.03656 45.034919,26.994225 4.8961357 0 0 -42.56668,-30.73945 z"
       style="opacity:1;fill:#4c684d;fill-opacity:0.64206693;stroke:#000402;stroke-width:0;stroke-linecap:butt;stroke-miterlimit:4;stroke-dasharray:none;stroke-opacity:1;paint-order:stroke markers fill"
       inkscape:connector-curvature="0" />
    <path
       id="path4767"
       d="m 153.27303,46.574111 a 57.596584,30.86963 4.8961357 0 1 4.69112,13.97563 57.596584,30.86963 4.8961357 0 1 -56.61159,26.06765 37.952275,29.533286 4.8961357 0 0 18.74972,5.70043 37.952275,29.533286 4.8961357 0 0 40.33435,-26.18612 37.952275,29.533286 4.8961357 0 0 -7.1636,-19.55759 z"
       style="opacity:1;fill:#4c684d;fill-opacity:0.64206699;stroke:#b10402;stroke-width:0;stroke-linecap:butt;stroke-miterlimit:4;stroke-dasharray:none;stroke-opacity:0.52398526;paint-order:stroke markers fill"
       inkscape:connector-curvature="0" />
    <g
       sodipodi:type="inkscape:box3d"
       id="g4771"
       style="opacity:1;fill:#4d4d4d;fill-opacity:1;stroke:#b10402;stroke-width:0;stroke-linecap:butt;stroke-miterlimit:4;stroke-dasharray:none;stroke-opacity:0.52398526;paint-order:stroke markers fill"
       inkscape:perspectiveID="#perspective4769"
       inkscape:corner0="1.3109521 : 0.078301574 : 0 : 1"
       inkscape:corner7="1.194759 : 0.029192834 : 0.25 : 1">
      <path
         sodipodi:type="inkscape:box3dside"
         id="path4773"
         style="fill:#353564;fill-rule:evenodd;stroke:none;stroke-linejoin:round"
         inkscape:box3dsidetype="6"
         d="m 176.84503,111.16531 v 21.25044 l 16.06475,-0.85782 v -19.17597 z"
         points="176.84503,132.41575 192.90978,131.55793 192.90978,112.38196 176.84503,111.16531 " />
      <path
         sodipodi:type="inkscape:box3dside"
         id="path4781"
         style="fill:#afafde;fill-rule:evenodd;stroke:none;stroke-linejoin:round"
         inkscape:box3dsidetype="13"
         d="m 176.84503,132.41575 2.40543,0.46521 16.58228,-0.94616 -2.92296,-0.37687 z"
         points="179.25046,132.88096 195.83274,131.9348 192.90978,131.55793 176.84503,132.41575 " />
      <path
         sodipodi:type="inkscape:box3dside"
         id="path4783"
         style="fill:#e9e9ff;fill-rule:evenodd;stroke:none;stroke-linejoin:round"
         inkscape:box3dsidetype="11"
         d="m 192.90978,112.38196 2.92296,-0.53452 v 20.08736 l -2.92296,-0.37687 z"
         points="195.83274,111.84744 195.83274,131.9348 192.90978,131.55793 192.90978,112.38196 " />
      <path
         sodipodi:type="inkscape:box3dside"
         id="path4775"
         style="fill:#4d4d9f;fill-rule:evenodd;stroke:none;stroke-linejoin:round"
         inkscape:box3dsidetype="5"
         d="m 176.84503,111.16531 2.40543,-0.65981 16.58228,1.34194 -2.92296,0.53452 z"
         points="179.25046,110.5055 195.83274,111.84744 192.90978,112.38196 176.84503,111.16531 " />
      <path
         sodipodi:type="inkscape:box3dside"
         id="path4779"
         style="fill:#d7d7ff;fill-rule:evenodd;stroke:none;stroke-linejoin:round"
         inkscape:box3dsidetype="14"
         d="m 179.25046,110.5055 v 22.37546 l 16.58228,-0.94616 v -20.08736 z"
         points="179.25046,132.88096 195.83274,131.9348 195.83274,111.84744 179.25046,110.5055 " />
      <path
         sodipodi:type="inkscape:box3dside"
         id="path4777"
         style="fill:#8686bf;fill-rule:evenodd;stroke:none;stroke-linejoin:round"
         inkscape:box3dsidetype="3"
         d="m 176.84503,111.16531 2.40543,-0.65981 v 22.37546 l -2.40543,-0.46521 z"
         points="179.25046,110.5055 179.25046,132.88096 176.84503,132.41575 176.84503,111.16531 " />
    </g>
    <path
       id="path4785"
       d="M 31.227992,5.8069541 A 45.034919,26.994225 0 0 0 20.665331,6.5908851 33.337711,41.891185 78.312277 0 1 57.962794,32.551058 33.337711,41.891185 78.312277 0 1 50.736361,57.105113 45.034919,26.994225 0 0 0 76.26297,32.801171 45.034919,26.994225 0 0 0 31.227992,5.8069541 Z"
       style="opacity:1;fill:#4c684d;fill-opacity:0.64206663;stroke:#000402;stroke-width:0;stroke-linecap:butt;stroke-miterlimit:4;stroke-dasharray:none;stroke-opacity:1;paint-order:stroke markers fill"
       inkscape:connector-curvature="0" />
    <path
       style="opacity:1;fill:#4c684d;fill-opacity:0.64313725;stroke:#b10402;stroke-width:0;stroke-linecap:butt;stroke-miterlimit:4;stroke-dasharray:none;stroke-opacity:0.52398526;paint-order:stroke markers fill"
       d="m 204.64686,39.321703 a 3.9406486,4.0125856 0 0 0 -3.7424,2.771407 2.8731472,3.6749556 59.864386 0 1 -1.82315,2.046385 2.8731472,3.6749556 59.864386 0 1 -0.22427,0.117306 l -0.51728,0.225827 a 2.8731472,3.6749556 59.864386 0 1 -0.10232,0.03669 2.1130995,1.8959431 0 0 0 0.004,0.0062 l -17.0956,7.448124 a 45.034919,26.994225 4.8961357 0 1 1.51774,4.494299 l 18.60041,-11.085628 a 3.9406486,4.0125856 0 0 0 5.2e-4,0.0016 l 2.05311,-1.21698 a 1.3175097,3.7849825 71.717437 0 0 1.82262,-0.481108 1.3175097,3.7849825 71.717437 0 0 2.89337,-2.314069 l 0.0336,-0.02016 a 3.9406486,4.0125856 0 0 0 -3.41995,-2.029849 z"
       id="rect4797"
       inkscape:connector-curvature="0" />
    <path
       inkscape:connector-curvature="0"
       id="path4826"
       d="m 213.07573,6.7023608 a 3.9406486,4.0125856 0 0 0 -3.74241,2.77141 2.8731472,3.6749556 59.864386 0 1 -1.82314,2.0463802 2.8731472,3.6749556 59.864386 0 1 -0.22428,0.11731 l -0.51728,0.22583 a 2.8731472,3.6749556 59.864386 0 1 -0.10232,0.0367 2.1130995,1.8959431 0 0 0 0.004,0.006 l -21.43177,9.33741 a 45.034919,26.994225 4.8961357 0 1 1.7539,5.04879 l 22.70042,-13.52941 a 3.9406486,4.0125856 0 0 0 5.2e-4,0.002 l 6.80268,-4.0323102 a 3.9406486,4.0125856 0 0 0 -3.41994,-2.02985 z"
       style="opacity:1;fill:#4c684d;fill-opacity:0.64313725;stroke:#b10402;stroke-width:0;stroke-linecap:butt;stroke-miterlimit:4;stroke-dasharray:none;stroke-opacity:0.52398526;paint-order:stroke markers fill" />
    <path
       inkscape:connector-curvature="0"
       style="opacity:1;fill:#4c684d;fill-opacity:0.64206699;stroke:#000402;stroke-width:0;stroke-linecap:butt;stroke-miterlimit:4;stroke-dasharray:none;stroke-opacity:1;paint-order:stroke markers fill"
       d="m 261.95061,-12.572729 a 45.034919,26.994225 5.7486023 0 0 -10.58807,-0.27801 33.337711,41.891185 84.060879 0 1 34.50962,29.56548 33.337711,41.891185 84.060879 0 1 -9.64951,23.70674 45.034919,26.994225 5.7486023 0 0 27.83259,-21.62487 45.034919,26.994225 5.7486023 0 0 -42.10463,-31.36934 z"
       id="path4837" />
    <path
       inkscape:connector-curvature="0"
       style="opacity:1;fill:#4c684d;fill-opacity:0.64206699;stroke:#b10402;stroke-width:0;stroke-linecap:butt;stroke-miterlimit:4;stroke-dasharray:none;stroke-opacity:0.52398526;paint-order:stroke markers fill"
       d="m 276.71446,2.7878008 a 57.596584,30.86963 5.7486023 0 1 4.48267,14.0438702 57.596584,30.86963 5.7486023 0 1 -56.99316,25.22251 37.952275,29.533286 5.7486023 0 0 18.66283,5.97875 37.952275,29.533286 5.7486023 0 0 40.71948,-25.58313 37.952275,29.533286 5.7486023 0 0 -6.87182,-19.6620002 z"
       id="path4839" />
    <path
       style="opacity:1;fill:#4c684d;fill-opacity:0.64313725;stroke:#b10402;stroke-width:0;stroke-linecap:butt;stroke-miterlimit:4;stroke-dasharray:none;stroke-opacity:0.52398526;paint-order:stroke markers fill"
       d="m 325.29676,-11.526499 a 5.9893691,3.9984374 85.604924 0 0 -2.7124,4.1967198 3.3762312,4.7364968 14.710814 0 1 -1.62962,3.16552 3.3762312,4.7364968 14.710814 0 1 -0.21449,0.18898 l -0.49989,0.36915 a 3.3762312,4.7364968 14.710814 0 1 -0.0999,0.0626 2.8300101,2.1440588 85.382889 0 0 0.004,0.006 l -16.52335,12.19568 a 46.314672,39.754021 16.026501 0 1 2.01259,6.5930802 l 17.66228,-17.7091102 a 5.9893691,3.9984374 85.604924 0 0 5.6e-4,0.002 l 1.95031,-1.94484 a 1.8547477,4.0720427 56.838586 0 0 1.79451,-0.83453 1.8547477,4.0720427 56.838586 0 0 0.80651,-0.56635 l 14.35905,-5.8018298 15.02579,-6.06992 -15.3674,4.25479 -12.68465,3.5114798 a 5.9893691,3.9984374 85.604924 0 0 -3.10016,-1.7934698 l -10e-4,-2.3e-4 a 5.9893691,3.9984374 85.604924 0 0 -0.78369,0.17408 z"
       id="path4841"
       inkscape:connector-curvature="0" />
    <path
       style="opacity:1;fill:#92842c;fill-opacity:0.64313725;stroke:#b10402;stroke-width:0;stroke-linecap:butt;stroke-miterlimit:4;stroke-dasharray:none;stroke-opacity:0.52398526;paint-order:stroke markers fill"
       d="m 152.75668,184.25602 3.20723,-0.65981 v 22.38382 l -3.20723,-0.47358 z"
       id="rect4849"
       inkscape:connector-curvature="0"
       sodipodi:nodetypes="ccccc" />
    <g
       id="g4866"
       transform="matrix(0.24593858,0,0,0.33656587,60.445141,106.6918)"
       style="stroke:#000000;stroke-width:0.74729156;stroke-miterlimit:4;stroke-dasharray:none;stroke-opacity:1">
      <path
         transform="rotate(131.14962,519.58366,98.418798)"
         d="m 382.19543,146.79453 c 0,0 0,0 0,0 1e-5,0 1e-5,0 1e-5,0 1.7e-4,7.4e-4 -0.001,8e-4 -0.002,9.7e-4 -0.54034,0.11762 -0.5955,-0.96051 -0.70194,-1.50316 -3.17589,-16.19189 16.71966,-38.34858 25.29277,-48.209965"
         sodipodi:t0="0"
         sodipodi:argument="-19.961016"
         sodipodi:radius="55.460842"
         sodipodi:revolution="3"
         sodipodi:expansion="71.93"
         sodipodi:cy="146.79453"
         sodipodi:cx="382.19543"
         id="path4860"
         style="fill:none;fill-rule:evenodd;stroke:#000000;stroke-width:0.74729156;stroke-miterlimit:4;stroke-dasharray:none;stroke-opacity:1"
         sodipodi:type="spiral" />
      <g
         id="g4895"
         transform="translate(178.27719,-74.120494)">
        <path
           transform="matrix(0.70155561,0.7529938,0.80280375,-0.65802761,-2.9884283,-94.420698)"
           d="m 382.19543,146.79453 c 0,0 0,0 0,0 1e-5,0 1e-5,0 1e-5,0 1.7e-4,7.4e-4 -0.001,8e-4 -0.002,9.7e-4 -0.54034,0.11762 -0.5955,-0.96051 -0.70194,-1.50316 -3.17589,-16.19189 16.71966,-38.34858 25.29277,-48.209965"
           sodipodi:t0="0"
           sodipodi:argument="-19.961016"
           sodipodi:radius="55.460842"
           sodipodi:revolution="3"
           sodipodi:expansion="71.93"
           sodipodi:cy="146.79453"
           sodipodi:cx="382.19543"
           id="path4862"
           style="fill:none;fill-rule:evenodd;stroke:#000000;stroke-width:0.72373754;stroke-miterlimit:4;stroke-dasharray:none;stroke-opacity:1"
           sodipodi:type="spiral" />
      </g>
    </g>
    <g
       style="fill:#ada558;fill-opacity:0;stroke:#8e832a;stroke-width:0.73525441;stroke-miterlimit:4;stroke-dasharray:none;stroke-opacity:1"
       transform="matrix(0.2676496,0.01288621,0.02033592,0.33245074,58.628258,130.80774)"
       id="g4872">
      <path
         sodipodi:type="spiral"
         style="fill:#ada558;fill-opacity:0;fill-rule:evenodd;stroke:#8e832a;stroke-width:0.73525441;stroke-miterlimit:4;stroke-dasharray:none;stroke-opacity:1"
         id="path4868"
         sodipodi:cx="382.19543"
         sodipodi:cy="146.79453"
         sodipodi:expansion="71.93"
         sodipodi:revolution="3"
         sodipodi:radius="55.460842"
         sodipodi:argument="-19.961016"
         sodipodi:t0="0"
         d="m 382.19543,146.79453 c 0,0 0,0 0,0 1e-5,0 1e-5,0 1e-5,0 1.7e-4,7.4e-4 -0.001,8e-4 -0.002,9.7e-4 -0.54034,0.11762 -0.5955,-0.96051 -0.70194,-1.50316 -3.17589,-16.19189 16.71966,-38.34858 25.29277,-48.209965"
         transform="rotate(131.14962,393.95116,121.96545)" />
      <path
         transform="matrix(0.70155561,0.7529938,0.80280375,-0.65802761,-2.9884283,-94.420698)"
         d="m 382.19543,146.79453 c 0,0 0,0 0,0 1e-5,0 1e-5,0 1e-5,0 1.7e-4,7.4e-4 -0.001,8e-4 -0.002,9.7e-4 -0.54034,0.11762 -0.5955,-0.96051 -0.70194,-1.50316 -3.17589,-16.19189 16.71966,-38.34858 25.29277,-48.209965"
         sodipodi:t0="0"
         sodipodi:argument="-19.961016"
         sodipodi:radius="55.460842"
         sodipodi:revolution="3"
         sodipodi:expansion="71.93"
         sodipodi:cy="146.79453"
         sodipodi:cx="382.19543"
         id="path4870"
         style="fill:#ada558;fill-opacity:0;fill-rule:evenodd;stroke:#8e832a;stroke-width:0.71207976;stroke-miterlimit:4;stroke-dasharray:none;stroke-opacity:1"
         sodipodi:type="spiral" />
    </g>
    <rect
       style="opacity:1;fill:#ffffff;fill-opacity:1;stroke:none;stroke-width:0.51379985;stroke-linecap:butt;stroke-miterlimit:4;stroke-dasharray:none;stroke-opacity:1;paint-order:stroke markers fill"
       id="rect4874"
       width="53.721176"
       height="35.145943"
       x="369.73053"
       y="231.69038" />
    <g
       inkscape:corner7="1.194759 : 0.029192834 : 0.25 : 1"
       inkscape:corner0="1.3109521 : 0.078301574 : 0 : 1"
       inkscape:perspectiveID="#perspective4892"
       style="opacity:1;fill:#4d4d4d;fill-opacity:1;stroke:#b10402;stroke-width:0;stroke-linecap:butt;stroke-miterlimit:4;stroke-dasharray:none;stroke-opacity:0.52398526;paint-order:stroke markers fill"
       id="g4890"
       sodipodi:type="inkscape:box3d">
      <path
         points="1381.7787,-279.90135 1442.4958,-283.1435 1442.4958,-355.61961 1381.7787,-360.21795 "
         d="m 1381.7787,-360.21795 v 80.3166 l 60.7171,-3.24215 v -72.47611 z"
         inkscape:box3dsidetype="6"
         style="fill:#353564;fill-rule:evenodd;stroke:none;stroke-linejoin:round"
         id="path4878"
         sodipodi:type="inkscape:box3dside" />
      <path
         points="1390.87,-278.14306 1453.5432,-281.71911 1442.4958,-283.1435 1381.7787,-279.90135 "
         d="m 1381.7787,-279.90135 9.0913,1.75829 62.6732,-3.57605 -11.0474,-1.42439 z"
         inkscape:box3dsidetype="13"
         style="fill:#afafde;fill-rule:evenodd;stroke:none;stroke-linejoin:round"
         id="path4880"
         sodipodi:type="inkscape:box3dside" />
      <path
         points="1453.5432,-357.63982 1453.5432,-281.71911 1442.4958,-283.1435 1442.4958,-355.61961 "
         d="m 1442.4958,-355.61961 11.0474,-2.02021 v 75.92071 l -11.0474,-1.42439 z"
         inkscape:box3dsidetype="11"
         style="fill:#e9e9ff;fill-rule:evenodd;stroke:none;stroke-linejoin:round"
         id="path4882"
         sodipodi:type="inkscape:box3dside" />
      <path
         points="1390.87,-362.71172 1453.5432,-357.63982 1442.4958,-355.61961 1381.7787,-360.21795 "
         d="m 1381.7787,-360.21795 9.0913,-2.49377 62.6732,5.0719 -11.0474,2.02021 z"
         inkscape:box3dsidetype="5"
         style="fill:#4d4d9f;fill-rule:evenodd;stroke:none;stroke-linejoin:round"
         id="path4884"
         sodipodi:type="inkscape:box3dside" />
      <path
         points="1390.87,-278.14306 1453.5432,-281.71911 1453.5432,-357.63982 1390.87,-362.71172 "
         d="m 1390.87,-362.71172 v 84.56866 l 62.6732,-3.57605 v -75.92071 z"
         inkscape:box3dsidetype="14"
         style="fill:#d7d7ff;fill-rule:evenodd;stroke:none;stroke-linejoin:round"
         id="path4886"
         sodipodi:type="inkscape:box3dside" />
      <path
         points="1390.87,-362.71172 1390.87,-278.14306 1381.7787,-279.90135 1381.7787,-360.21795 "
         d="m 1381.7787,-360.21795 9.0913,-2.49377 v 84.56866 l -9.0913,-1.75829 z"
         inkscape:box3dsidetype="3"
         style="fill:#8686bf;fill-rule:evenodd;stroke:none;stroke-linejoin:round"
         id="path4888"
         sodipodi:type="inkscape:box3dside" />
    </g>
    <path
       id="path4897"
       d="m 278.83116,4.9044808 a 57.596584,30.86963 23.698273 0 1 -0.0636,14.7418002 57.596584,30.86963 23.698273 0 1 -61.99227,6.43063 37.952275,29.533286 23.698273 0 0 15.91192,11.43929 37.952275,29.533286 23.698273 0 0 46.62181,-11.78895 37.952275,29.533286 23.698273 0 0 -0.47788,-20.8227702 z"
       style="opacity:1;fill:#4c684d;fill-opacity:0.64206699;stroke:#b10402;stroke-width:0;stroke-linecap:butt;stroke-miterlimit:4;stroke-dasharray:none;stroke-opacity:0.52398526;paint-order:stroke markers fill"
       inkscape:connector-curvature="0" />
    <path
       inkscape:connector-curvature="0"
       style="opacity:1;fill:#4c684d;fill-opacity:0.64206699;stroke:#b10402;stroke-width:0;stroke-linecap:butt;stroke-miterlimit:4;stroke-dasharray:none;stroke-opacity:0.52398526;paint-order:stroke markers fill"
       d="m 282.06402,8.5242208 a 57.596584,30.86963 42.355089 0 1 -4.77614,13.9468002 57.596584,30.86963 42.355089 0 1 -60.79183,-13.7385502 37.952275,29.533286 42.355089 0 0 11.41636,15.9283802 37.952275,29.533286 42.355089 0 0 47.94318,3.74481 37.952275,29.533286 42.355089 0 0 6.20842,-19.8814402 z"
       id="path4899" />
    <path
       style="opacity:1;fill:#c7c583;fill-opacity:1;stroke:#fdffff;stroke-width:0.40000001;stroke-linecap:butt;stroke-miterlimit:4;stroke-dasharray:none;stroke-opacity:1;paint-order:stroke markers fill"
       d="m 155.96391,183.59621 16.58228,1.331 v 19.92343 l -16.58228,1.12939 z"
       id="rect4903"
       inkscape:connector-curvature="0"
       sodipodi:nodetypes="ccccc" />
    <path
       style="opacity:1;fill:#4c684d;fill-opacity:0.64206699;stroke:#000402;stroke-width:0;stroke-linecap:butt;stroke-miterlimit:4;stroke-dasharray:none;stroke-opacity:1;paint-order:stroke markers fill"
       d="m -132.31239,71.68323 a 45.034919,26.994225 12.660761 0 0 -1.62897,-0.14026 41.891185,33.337711 0.97303777 0 1 30.70055,33.50387 41.891185,33.337711 0.97303777 0 1 -7.49012,17.67346 33.337711,41.891185 7.2484416 0 0 25.619079,-17.74945 45.034919,26.994225 12.660761 0 0 -38.351939,-31.87766 45.034919,26.994225 12.660761 0 0 -8.8486,-1.41001 z"
       id="path4906"
       inkscape:connector-curvature="0" />
    <path
       id="path4908"
       d="m -110.65567,90.119 a 57.596584,30.86963 12.660761 0 1 2.75995,14.48127 57.596584,30.86963 12.660761 0 1 -59.6144,18.1802 37.952275,29.533286 12.660761 0 0 17.80767,8.18132 37.952275,29.533286 12.660761 0 0 43.50239,-20.49669 37.952275,29.533286 12.660761 0 0 -4.45561,-20.3461 z"
       style="opacity:1;fill:#4c684d;fill-opacity:0.64206699;stroke:#b10402;stroke-width:0;stroke-linecap:butt;stroke-miterlimit:4;stroke-dasharray:none;stroke-opacity:0.52398526;paint-order:stroke markers fill"
       inkscape:connector-curvature="0" />
    <path
       inkscape:connector-curvature="0"
       id="path4910"
       d="m -62.360486,79.58741 a 3.9984374,5.9893691 0.73492077 0 0 -3.076787,3.93738 3.3762312,4.7364968 19.840811 0 1 -1.90614,3.00713 3.3762312,4.7364968 19.840811 0 1 -0.230528,0.16904 l -0.530896,0.32298 a 3.3762312,4.7364968 19.840811 0 1 -0.105105,0.0534 2.1440588,2.8300101 0.51288577 0 0 0.0034,0.006 l -17.54765,10.66938 a 46.314672,39.754021 21.156498 0 1 1.415004,6.74662 l 19.175004,-16.05889 a 3.9984374,5.9893691 0.73492077 0 0 3.78e-4,0.002 l 2.116396,-1.76266 a 1.8547477,4.0720427 61.968583 0 0 1.861943,-0.67072 1.8547477,4.0720427 61.968583 0 0 0.853919,-0.49197 l 14.820308,-4.49466 15.508349,-4.70207 -15.686289,2.86366 -12.94782,2.3632 a 3.9984374,5.9893691 0.73492077 0 0 -2.92738,-2.06348 l -9.68e-4,-3.2e-4 a 3.9984374,5.9893691 0.73492077 0 0 -0.796117,0.10331 z"
       style="opacity:1;fill:#4c684d;fill-opacity:0.64313725;stroke:#b10402;stroke-width:0;stroke-linecap:butt;stroke-miterlimit:4;stroke-dasharray:none;stroke-opacity:0.52398526;paint-order:stroke markers fill" />
    <path
       sodipodi:nodetypes="ccccc"
       inkscape:connector-curvature="0"
       id="path4912"
       d="m -9.3788225,94.771221 2.40542,-0.65981 v 22.383819 l -2.40542,-0.47358 z"
       style="opacity:1;fill:#4c684d;fill-opacity:0.64313725;stroke:#b10402;stroke-width:0;stroke-linecap:butt;stroke-miterlimit:4;stroke-dasharray:none;stroke-opacity:0.52398526;paint-order:stroke markers fill" />
    <path
       inkscape:connector-curvature="0"
       style="opacity:1;fill:#4c684d;fill-opacity:0.64206699;stroke:#b10402;stroke-width:0;stroke-linecap:butt;stroke-miterlimit:4;stroke-dasharray:none;stroke-opacity:0.52398526;paint-order:stroke markers fill"
       d="m -108.80909,92.47503 a 57.596584,30.86963 30.610432 0 1 -1.83727,14.627 57.596584,30.86963 30.610432 0 1 -62.31562,-1.07672 37.952275,29.533286 30.610432 0 0 14.41958,13.2711 37.952275,29.533286 30.610432 0 0 47.70173,-6.09244 37.952275,29.533286 30.610432 0 0 2.03156,-20.72894 z"
       id="path4914" />
    <path
       id="path4916"
       d="m -106.03535,96.45753 a 57.596584,30.86963 49.267248 0 1 -6.41989,13.27063 57.596584,30.86963 49.267248 0 1 -58.69659,-20.95484 37.952275,29.533286 49.267248 0 0 9.41644,17.18654 37.952275,29.533286 49.267248 0 0 47.14405,9.48744 37.952275,29.533286 49.267248 0 0 8.55598,-18.98977 z"
       style="opacity:1;fill:#4c684d;fill-opacity:0.64206699;stroke:#b10402;stroke-width:0;stroke-linecap:butt;stroke-miterlimit:4;stroke-dasharray:none;stroke-opacity:0.52398526;paint-order:stroke markers fill"
       inkscape:connector-curvature="0" />
    <path
       style="opacity:1;fill:#4c684d;fill-opacity:0.64206699;stroke:#000402;stroke-width:0;stroke-linecap:butt;stroke-miterlimit:4;stroke-dasharray:none;stroke-opacity:1;paint-order:stroke markers fill"
       d="m -121.51256,51.08264 a 41.891185,33.337711 19.359422 0 1 20.18117,29.57286 45.034919,26.994225 12.42565 0 1 15.733947,16.94863 45.034919,26.994225 31.047145 0 0 -26.461667,-41.74569 45.034919,26.994225 31.047145 0 0 -7.95162,-4.12912 45.034919,26.994225 31.047145 0 0 -1.50183,-0.64668 z"
       id="path4923"
       inkscape:connector-curvature="0" />
    <path
       inkscape:connector-curvature="0"
       id="path4936"
       d="m 66.328878,161.99156 a 45.034919,26.994225 12.660761 0 0 -1.62897,-0.14026 41.891185,33.337711 0.97303777 0 1 30.700551,33.50387 41.891185,33.337711 0.97303777 0 1 -7.49012,17.67346 33.337711,41.891185 7.2484416 0 0 25.619081,-17.74945 45.034919,26.994225 12.660761 0 0 -38.351941,-31.87766 45.034919,26.994225 12.660761 0 0 -8.848601,-1.41001 z"
       style="opacity:1;fill:#4c684d;fill-opacity:1;stroke:#000402;stroke-width:0;stroke-linecap:butt;stroke-miterlimit:4;stroke-dasharray:none;stroke-opacity:1;paint-order:stroke markers fill" />
    <path
       inkscape:connector-curvature="0"
       style="opacity:1;fill:#4c684d;fill-opacity:1;stroke:#b10402;stroke-width:0;stroke-linecap:butt;stroke-miterlimit:4;stroke-dasharray:none;stroke-opacity:0.52398526;paint-order:stroke markers fill"
       d="m 87.985599,180.42733 a 57.596584,30.86963 12.660761 0 1 2.75995,14.48127 57.596584,30.86963 12.660761 0 1 -59.614401,18.1802 37.952275,29.533286 12.660761 0 0 17.80767,8.18132 37.952275,29.533286 12.660761 0 0 43.502391,-20.49669 37.952275,29.533286 12.660761 0 0 -4.45561,-20.3461 z"
       id="path4938" />
    <path
       style="opacity:1;fill:#4c684d;fill-opacity:1;stroke:#28c5ff;stroke-width:0;stroke-linecap:butt;stroke-miterlimit:4;stroke-dasharray:none;stroke-opacity:1;paint-order:stroke markers fill"
       d="m 136.28078,169.89574 a 3.9984374,5.9893691 0.73492077 0 0 -3.07678,3.93738 3.3762312,4.7364968 19.840811 0 1 -1.90614,3.00713 3.3762312,4.7364968 19.840811 0 1 -0.23053,0.16904 l -0.5309,0.32298 a 3.3762312,4.7364968 19.840811 0 1 -0.1051,0.0534 2.1440588,2.8300101 0.51288577 0 0 0.003,0.006 l -17.54765,10.66938 a 46.314672,39.754021 21.156498 0 1 1.415,6.74662 l 19.17501,-16.05889 a 3.9984374,5.9893691 0.73492077 0 0 3.7e-4,0.002 l 2.1164,-1.76266 a 1.8547477,4.0720427 61.968583 0 0 1.86194,-0.67072 1.8547477,4.0720427 61.968583 0 0 0.85392,-0.49197 l 14.82031,-4.49466 15.50835,-4.70207 -15.68629,2.86366 -12.94782,2.3632 a 3.9984374,5.9893691 0.73492077 0 0 -2.92738,-2.06348 l -9.7e-4,-3.2e-4 a 3.9984374,5.9893691 0.73492077 0 0 -0.79612,0.10331 z"
       id="path4940"
       inkscape:connector-curvature="0" />
    <path
       id="path4942"
       d="m 89.832179,183.31253 a 57.596584,30.86963 30.610432 0 1 -1.83727,14.627 57.596584,30.86963 30.610432 0 1 -62.315621,-1.07672 37.952275,29.533286 30.610432 0 0 14.41958,13.2711 37.952275,29.533286 30.610432 0 0 47.701731,-6.09244 37.952275,29.533286 30.610432 0 0 2.03156,-20.72894 z"
       style="opacity:1;fill:#4c684d;fill-opacity:1;stroke:#b10402;stroke-width:0;stroke-linecap:butt;stroke-miterlimit:4;stroke-dasharray:none;stroke-opacity:0.52398526;paint-order:stroke markers fill"
       inkscape:connector-curvature="0" />
    <path
       inkscape:connector-curvature="0"
       style="opacity:1;fill:#4c684d;fill-opacity:1;stroke:#b10402;stroke-width:0;stroke-linecap:butt;stroke-miterlimit:4;stroke-dasharray:none;stroke-opacity:0.52398526;paint-order:stroke markers fill"
       d="m 90.200493,190.22963 a 57.596584,30.86963 49.267248 0 1 -6.41989,13.27063 57.596584,30.86963 49.267248 0 1 -58.696595,-20.95484 37.952275,29.533286 49.267248 0 0 9.41644,17.18654 37.952275,29.533286 49.267248 0 0 47.144055,9.48744 37.952275,29.533286 49.267248 0 0 8.55598,-18.98977 z"
       id="path4944" />
    <path
       style="opacity:1;fill:#4c684d;fill-opacity:1;stroke:#000402;stroke-width:0;stroke-linecap:butt;stroke-miterlimit:4;stroke-dasharray:none;stroke-opacity:1;paint-order:stroke markers fill"
       d="m 78.627248,143.2031 a 41.891185,33.337711 22.991571 0 1 17.987475,27.37586 45.034919,26.994225 16.29291 0 1 15.785727,15.8097 45.034919,26.994225 34.679294 0 0 -24.64158,-37.82035 45.034919,26.994225 34.679294 0 0 -7.673909,-4.62438 45.034919,26.994225 34.679294 0 0 -1.457713,-0.74083 z"
       id="path4946"
       inkscape:connector-curvature="0" />
    <g
       id="g4971"
       transform="matrix(0.26703292,0.01881874,0.00919189,0.30808733,58.738798,131.32873)"
       style="fill:#ada558;fill-opacity:0;stroke:#8e832a;stroke-width:0.73525441;stroke-miterlimit:4;stroke-dasharray:none;stroke-opacity:1">
      <path
         transform="rotate(131.14962,393.95116,121.96545)"
         d="m 382.19543,146.79453 c 0,0 0,0 0,0 1e-5,0 1e-5,0 1e-5,0 1.7e-4,7.4e-4 -0.001,8e-4 -0.002,9.7e-4 -0.54034,0.11762 -0.5955,-0.96051 -0.70194,-1.50316 -3.17589,-16.19189 16.71966,-38.34858 25.29277,-48.209965"
         sodipodi:t0="0"
         sodipodi:argument="-19.961016"
         sodipodi:radius="55.460842"
         sodipodi:revolution="3"
         sodipodi:expansion="71.93"
         sodipodi:cy="146.79453"
         sodipodi:cx="382.19543"
         id="path4967"
         style="fill:#ada558;fill-opacity:0;fill-rule:evenodd;stroke:#8e832a;stroke-width:0.73525441;stroke-miterlimit:4;stroke-dasharray:none;stroke-opacity:1"
         sodipodi:type="spiral" />
      <path
         sodipodi:type="spiral"
         style="fill:#ada558;fill-opacity:0;fill-rule:evenodd;stroke:#8e832a;stroke-width:0.71207976;stroke-miterlimit:4;stroke-dasharray:none;stroke-opacity:1"
         id="path4969"
         sodipodi:cx="382.19543"
         sodipodi:cy="146.79453"
         sodipodi:expansion="71.93"
         sodipodi:revolution="3"
         sodipodi:radius="55.460842"
         sodipodi:argument="-19.961016"
         sodipodi:t0="0"
         d="m 382.19543,146.79453 c 0,0 0,0 0,0 1e-5,0 1e-5,0 1e-5,0 1.7e-4,7.4e-4 -0.001,8e-4 -0.002,9.7e-4 -0.54034,0.11762 -0.5955,-0.96051 -0.70194,-1.50316 -3.17589,-16.19189 16.71966,-38.34858 25.29277,-48.209965"
         transform="matrix(0.70155561,0.7529938,0.80280375,-0.65802761,-2.9884283,-94.420698)" />
    </g>
    <flowRoot
       xml:space="preserve"
       id="flowRoot4973"
       style="font-style:normal;font-weight:normal;font-size:40px;line-height:1.25;font-family:sans-serif;letter-spacing:0px;word-spacing:0px;fill:#ffffff;fill-opacity:0.94833948;stroke:none"
       transform="matrix(0.20976072,0,0,0.26458333,199.28971,-71.059523)"><flowRegion
         id="flowRegion4975"
         style="fill:#ffffff;fill-opacity:0.94833948"><rect
           id="rect4977"
           width="137.14285"
           height="162.85715"
           x="-181.42857"
           y="983.94824"
           style="fill:#ffffff;fill-opacity:0.94833948" /></flowRegion><flowPara
         id="flowPara4979">B</flowPara></flowRoot>  </g>
</svg>
